<svg id="Capa_1" enable-background="new 0 0 512.003 512.003" height="512" viewBox="0 0 512.003 512.003" width="512" xmlns="http://www.w3.org/2000/svg"><path d="m178.18 99.588h51.323c2.656 0 3.845-3.155 3.845-6.281 0-2.204-.81-5.934-3.845-5.934h-61.07c-2.361 0-6.107 1.091-6.107 4.02v115.006c0 3.18 4.678 4.02 7.151 4.02 2.656 0 7.151-.846 7.151-4.02v-50.801c0-.857.695-1.552 1.552-1.552h27.487c3.801 0 3.845-4.856 3.845-5.063 0-2.01-.81-5.411-3.845-5.411h-27.487c-.857 0-1.552-.695-1.552-1.552v-40.88c0-.858.695-1.552 1.552-1.552z"/><path d="m238.664 208.043 7.133-24.704c.249-.862 1.038-1.455 1.934-1.455h43.061c.897 0 1.686.593 1.934 1.455l7.146 24.748c1.609 5.134 15.301.876 13.62-4.165l-34.466-112.795c-1.101-3.299-5.745-4.798-9.852-4.798-4.02 0-8.576 1.499-9.693 4.848l-34.609 112.697c-1.699 5.14 12.158 9.404 13.792 4.169zm11.103-39.385 17.475-59.938c.564-1.933 3.302-1.933 3.865 0l17.475 59.938c.375 1.289-.591 2.577-1.933 2.577h-34.949c-1.342 0-2.308-1.288-1.933-2.577z"/><path d="m404.381 174.733v-50.631c0-30.357-20.162-36.729-37.077-36.729-16.835 0-36.903 6.372-36.903 36.729v50.631c0 19.637 8.219 31.527 24.43 35.34 4.325 1.017 14.406 1.675 23.152.38.402-.059.801.126 1.015.472l5.771 9.348c2.073 3.355 6.488 4.4 9.842 2.329 3.199-1.974 4.554-6.239 2.186-10.074l-4.368-7.073c-.265-.429-.176-.988.21-1.313 8.885-7.486 11.742-17.582 11.742-29.409zm-14.303 0c0 8.613-2.255 12.769-4.698 16.538-.406.627-1.327.617-1.719-.019l-3.484-5.643c-2.106-3.412-6.618-4.669-10.019-2.546-3.258 2.033-4.459 6.325-2.142 10.076l2.115 3.424c.415.671-.059 1.538-.848 1.552-6.643.116-10.117.247-14.345-2.013-6.792-3.632-10.235-10.822-10.235-21.368v-50.631c0-16.038 7.815-24.515 22.601-24.515 14.686 0 22.774 8.706 22.774 24.515z"/><path d="m108.75 511.743c11.667 1.935 22.318-7.179 22.318-19.075v-81.305c0-2.374 1.932-4.306 4.307-4.306h82.429c4.143 0 7.5-3.358 7.5-7.5s-3.357-7.5-7.5-7.5h-82.429c-10.646 0-19.307 8.661-19.307 19.306v81.305c0 2.599-2.298 4.702-4.862 4.277-47.777-7.929-82.455-48.886-82.455-97.388v-249.893c0-16.75 13.627-30.376 30.377-30.376h12.063v138.105c0 25.021 20.356 45.377 45.378 45.377h260.059c2.374 0 4.306 1.932 4.306 4.306v81.305c0 1.131.11 2.363.341 3.59.005.028.007.057.012.086h-128.483c-4.143 0-7.5 3.358-7.5 7.5s3.357 7.5 7.5 7.5h142.389c2.689.725 5.437.834 8.059.398 54.097-8.978 95.001-55.994 95.001-112.186v-101.05c0-4.142-3.357-7.5-7.5-7.5s-7.5 3.358-7.5 7.5v101.051c0 48.501-34.678 89.459-82.456 97.388-2.482.414-4.862-1.662-4.862-4.277v-81.305c0-10.646-8.66-19.306-19.306-19.306h-260.06c-16.75 0-30.378-13.627-30.378-30.377 0-8.889 0-205.269 0-212.016 0-16.75 13.628-30.377 30.378-30.377h336.305c16.75 0 30.378 13.627 30.378 30.377v113.842c0 4.142 3.357 7.5 7.5 7.5s7.5-3.358 7.5-7.5v-113.842c0-25.021-20.357-45.377-45.378-45.377h-336.305c-25.021 0-45.378 20.356-45.378 45.377v58.911h-12.063c-25.021 0-45.377 20.356-45.377 45.376v249.893c0 56.242 40.958 103.217 94.999 112.186z"/></svg>